<svg width="80" height="80" viewBox="0 0 80 80" fill="none" xmlns="http://www.w3.org/2000/svg">
<rect width="80" height="80" rx="8" fill="#C5CE38"/>
<g clip-path="url(#clip0_10129_707)">
<path d="M36.2891 33.7988H43.4668V27.4512L39.8535 21.6895L36.2891 27.4512V33.7988ZM33.3594 28.5254H15V65H29.1113V46.2012L33.3594 39.3652V28.5254ZM38.3887 18.5156V15H20.0293V19.3457L16.1719 25.5957H33.9941L38.3887 18.5156ZM49.8145 42.5879L47.0312 47.0312V65H52.5977V47.0312L49.8145 42.5879ZM32.041 48.0566H44.1016V65H32.041V48.0566ZM48.3496 36.7285H36.2891V40.1953L33.2129 45.127H44.7852L48.3496 39.3652V36.7285Z" fill="white"/>
</g>
<defs>
<clipPath id="clip0_10129_707">
<rect width="50" height="50" fill="white" transform="matrix(1 0 0 -1 15 65)"/>
</clipPath>
</defs>
</svg>
