<svg width="80" height="80" viewBox="0 0 80 80" fill="none" xmlns="http://www.w3.org/2000/svg">
<rect width="80" height="80" rx="8" fill="#C5CE38"/>
<g clip-path="url(#clip0_10129_696)">
<path d="M30.0879 23.6914L32.1387 21.6406L38.2422 27.6953C38.4049 27.8906 38.5758 28.0859 38.7549 28.2812C38.9339 28.4766 39.1048 28.6719 39.2676 28.8672C40.2441 27.4349 40.651 25.8398 40.4883 24.082C40.3255 22.3242 39.6257 20.8268 38.3887 19.5898C36.9238 18.0924 35.2393 16.9531 33.335 16.1719C31.4307 15.3906 29.4368 15 27.3535 15H23.4473V18.9062C23.4473 20.9896 23.8379 22.9834 24.6191 24.8877C25.4004 26.792 26.5397 28.4766 28.0371 29.9414C29.2741 31.1784 30.7552 31.8783 32.4805 32.041C34.2057 32.2038 35.7845 31.8294 37.2168 30.918C37.054 30.7227 36.8831 30.5273 36.7041 30.332C36.5251 30.1367 36.3379 29.9414 36.1426 29.7461L30.0879 23.6914ZM53.916 21.6406L55.9668 23.6914L49.9121 29.7461C49.7168 29.9414 49.5296 30.1367 49.3506 30.332C49.1716 30.5273 49.0007 30.7227 48.8379 30.918C50.2702 31.8294 51.849 32.2038 53.5742 32.041C55.2995 31.8783 56.7806 31.1784 58.0176 29.9414C59.515 28.4766 60.6543 26.792 61.4355 24.8877C62.2168 22.9834 62.6074 20.9896 62.6074 18.9062V15H58.7012C56.6178 15 54.624 15.3906 52.7197 16.1719C50.8154 16.9531 49.1309 18.0924 47.666 19.5898C46.429 20.8268 45.7292 22.3242 45.5664 24.082C45.4036 25.8398 45.8105 27.4349 46.7871 28.8672C46.9499 28.6719 47.1208 28.4766 47.2998 28.2812C47.4788 28.0859 47.6497 27.8906 47.8125 27.6953L53.916 21.6406ZM47.666 29.9414C47.5033 29.7786 47.3486 29.6077 47.2021 29.4287C47.0557 29.2497 46.9173 29.0625 46.7871 28.8672C45.9733 29.7786 45.2572 30.7552 44.6387 31.7969C44.0202 32.8385 43.4831 33.929 43.0273 35.0684C42.6042 33.929 42.0752 32.8385 41.4404 31.7969C40.8057 30.7552 40.0814 29.7786 39.2676 28.8672C39.1374 29.0625 38.999 29.2497 38.8525 29.4287C38.7061 29.6077 38.5514 29.7786 38.3887 29.9414C38.1934 30.1367 37.998 30.3076 37.8027 30.4541C37.6074 30.6006 37.4121 30.7552 37.2168 30.918C38.4538 32.4154 39.4303 34.0999 40.1465 35.9717C40.8626 37.8434 41.3021 39.7559 41.4648 41.709C40.293 41.8392 39.1699 42.124 38.0957 42.5635C37.0215 43.0029 36.0286 43.5645 35.1172 44.248C35.5404 44.4759 35.9554 44.7282 36.3623 45.0049C36.7692 45.2816 37.2005 45.5664 37.6562 45.8594L43.0273 45.957C45.013 45.957 46.8522 46.5023 48.5449 47.5928C50.2376 48.6833 51.5072 50.14 52.3535 51.9629V52.0117C52.8743 51.7188 53.3789 51.4014 53.8672 51.0596C54.3555 50.7178 54.8275 50.3678 55.2832 50.0098C54.4368 47.7637 53.0615 45.8919 51.1572 44.3945C49.2529 42.8971 47.0638 42.002 44.5898 41.709C44.7526 39.7559 45.1921 37.8434 45.9082 35.9717C46.6243 34.0999 47.6009 32.4154 48.8379 30.918C48.6426 30.7552 48.4473 30.6006 48.252 30.4541C48.0566 30.3076 47.8613 30.1367 47.666 29.9414ZM32.2852 63.7793C33.6198 64.1048 34.9707 64.3896 36.3379 64.6338C37.7051 64.8779 39.3164 65 41.1719 65C43.6458 65 45.8268 64.7396 47.7148 64.2188C49.5703 63.6654 51.3688 62.9085 53.1104 61.9482C54.8519 60.988 56.6504 59.8405 58.5059 58.5059C60.3613 57.1387 62.526 55.6576 65 54.0625C64.9349 53.9974 64.9023 53.9567 64.9023 53.9404C64.9023 53.9242 64.6582 53.5417 64.1699 52.793C63.4212 51.6862 62.3633 51.084 60.9961 50.9863C59.6289 50.8887 58.4245 51.263 57.3828 52.1094C56.3086 52.9557 55.1693 53.737 53.9648 54.4531C52.7604 55.1367 51.5153 55.7227 50.2295 56.2109C48.9437 56.6992 47.6172 57.0736 46.25 57.334C44.9154 57.5944 43.5482 57.7083 42.1484 57.6758C39.8698 57.6758 37.9574 57.4316 36.4111 56.9434C34.8649 56.4551 33.9941 56.1784 33.7988 56.1133L34.6777 53.3789C34.9382 53.444 35.7113 53.68 36.9971 54.0869C38.2829 54.4938 39.9349 54.7135 41.9531 54.7461C43.2878 54.8112 44.6061 54.6973 45.9082 54.4043C47.2103 54.1113 48.4635 53.7044 49.668 53.1836C49.082 51.9141 48.195 50.8805 47.0068 50.083C45.8187 49.2855 44.4922 48.8867 43.0273 48.8867H37.8516C37.526 48.8867 37.2005 48.8379 36.875 48.7402C36.5495 48.6426 36.2565 48.4961 35.9961 48.3008C32.806 46.1523 30.4297 44.9805 28.8672 44.7852C27.3047 44.5898 25.0423 45.4688 22.0801 47.4219H15V62.0703H16.4648C20.5664 62.0703 23.7891 62.2575 26.1328 62.6318C28.4766 63.0062 30.5273 63.3887 32.2852 63.7793Z" fill="white"/>
</g>
<defs>
<clipPath id="clip0_10129_696">
<rect width="50" height="50" fill="white" transform="matrix(1 0 0 -1 15 65)"/>
</clipPath>
</defs>
</svg>
