<svg width="80" height="80" viewBox="0 0 80 80" fill="none" xmlns="http://www.w3.org/2000/svg">
<rect width="80" height="80" rx="8" fill="#C5CE38"/>
<path d="M29.4531 45.8105C28.8997 45.8105 28.4359 45.9977 28.0615 46.3721C27.6872 46.7464 27.5 47.2103 27.5 47.7637C27.5 48.3171 27.6872 48.7809 28.0615 49.1553C28.4359 49.5296 28.8997 49.7168 29.4531 49.7168C30.0065 49.7168 30.4704 49.5296 30.8447 49.1553C31.2191 48.7809 31.4062 48.3171 31.4062 47.7637C31.4062 47.2103 31.2191 46.7464 30.8447 46.3721C30.4704 45.9977 30.0065 45.8105 29.4531 45.8105ZM29.4531 33.3105C27.4674 33.3105 25.5957 33.6849 23.8379 34.4336C22.0801 35.2148 20.5501 36.2565 19.248 37.5586C17.946 38.8607 16.9043 40.3906 16.123 42.1484C15.3743 43.9062 15 45.778 15 47.7637C15 49.7493 15.3743 51.6211 16.123 53.3789C16.9043 55.1367 17.946 56.6667 19.248 57.9688C20.5501 59.2708 22.0801 60.3125 23.8379 61.0938C25.5957 61.8424 27.4674 62.2168 29.4531 62.2168C31.4388 62.2168 33.3105 61.8424 35.0684 61.0938C36.8262 60.3125 38.3561 59.2708 39.6582 57.9688C40.9603 56.6667 42.002 55.1367 42.7832 53.3789C43.5319 51.6211 43.9062 49.7493 43.9062 47.7637C43.9062 45.778 43.5319 43.9062 42.7832 42.1484C42.002 40.3906 40.9603 38.8607 39.6582 37.5586C38.3561 36.2565 36.8262 35.2148 35.0684 34.4336C33.3105 33.6849 31.4388 33.3105 29.4531 33.3105ZM29.4531 52.6465C28.1185 52.6465 26.971 52.1663 26.0107 51.2061C25.0505 50.2458 24.5703 49.0983 24.5703 47.7637C24.5703 46.429 25.0505 45.2816 26.0107 44.3213C26.971 43.361 28.1185 42.8809 29.4531 42.8809C30.7878 42.8809 31.9352 43.361 32.8955 44.3213C33.8558 45.2816 34.3359 46.429 34.3359 47.7637C34.3359 49.0983 33.8558 50.2458 32.8955 51.2061C31.9352 52.1663 30.7878 52.6465 29.4531 52.6465ZM47.5684 32.5781L43.9551 20.7129H46.2012C46.6243 20.7129 46.9743 20.5664 47.251 20.2734C47.5277 19.9805 47.666 19.6387 47.666 19.248C47.666 18.8574 47.5277 18.5156 47.251 18.2227C46.9743 17.9297 46.6243 17.7832 46.2012 17.7832H35.1172V31.3086C35.6055 31.5039 36.0775 31.6992 36.5332 31.8945C36.9889 32.0898 37.4447 32.3177 37.9004 32.5781H47.5684ZM32.1875 30.5762V17.7832H24.2773C23.9844 17.7832 23.7158 17.8727 23.4717 18.0518C23.2275 18.2308 23.0404 18.4505 22.9102 18.7109C22.8776 18.776 22.8532 18.8574 22.8369 18.9551C22.8206 19.0527 22.8125 19.1341 22.8125 19.1992C22.8125 19.2318 22.8125 19.248 22.8125 19.248V31.6992C23.8542 31.276 24.9284 30.9505 26.0352 30.7227C27.1419 30.4948 28.2812 30.3809 29.4531 30.3809C29.9089 30.3809 30.3646 30.3971 30.8203 30.4297C31.276 30.4622 31.7318 30.5111 32.1875 30.5762ZM65 55.9668C65 57.6921 64.3896 59.165 63.1689 60.3857C61.9482 61.6064 60.4753 62.2168 58.75 62.2168C57.0247 62.2168 55.5599 61.6064 54.3555 60.3857C53.151 59.165 52.5488 57.6921 52.5488 55.9668C52.5488 54.2415 53.151 52.7767 54.3555 51.5723C55.5599 50.3678 57.0247 49.7656 58.75 49.7656C60.4753 49.7656 61.9482 50.3678 63.1689 51.5723C64.3896 52.7767 65 54.2415 65 55.9668ZM59.043 40.4395H62.168C61.8099 39.3652 61.224 38.4212 60.4102 37.6074C59.5964 36.7936 58.6523 36.2077 57.5781 35.8496V38.9746C57.5781 39.3652 57.7246 39.707 58.0176 40C58.3105 40.293 58.6523 40.4395 59.043 40.4395ZM62.5586 47.666V43.3691H59.043C57.8385 43.3691 56.805 42.9378 55.9424 42.0752C55.0798 41.2126 54.6484 40.179 54.6484 38.9746V35.5566C54.6484 35.5241 54.6484 35.4997 54.6484 35.4834C54.6484 35.4671 54.6484 35.459 54.6484 35.459H41.709C43.304 37.0215 44.5573 38.8607 45.4688 40.9766C46.3802 43.0924 46.8359 45.3548 46.8359 47.7637C46.8359 48.7077 46.7627 49.6436 46.6162 50.5713C46.4697 51.499 46.25 52.3861 45.957 53.2324H50.0098C50.5957 51.377 51.6862 49.847 53.2812 48.6426C54.8763 47.4382 56.6992 46.8359 58.75 46.8359C59.4336 46.8359 60.0928 46.901 60.7275 47.0312C61.3623 47.1615 61.9727 47.373 62.5586 47.666ZM54.8438 30.6738C54.8438 30.6087 54.8682 30.5436 54.917 30.4785C54.9658 30.4134 55.0391 30.3809 55.1367 30.3809H55.8203C56.2109 30.3809 56.5527 30.2344 56.8457 29.9414C57.1387 29.6484 57.2852 29.3066 57.2852 28.916C57.2852 28.5254 57.1387 28.1836 56.8457 27.8906C56.5527 27.5977 56.2109 27.4512 55.8203 27.4512H55.1367C54.2578 27.4512 53.501 27.7686 52.8662 28.4033C52.2314 29.0381 51.9141 29.7949 51.9141 30.6738V32.5781H54.8438V30.6738Z" fill="white"/>
</svg>
