<svg width="40" height="40" viewBox="0 0 40 40" fill="none" xmlns="http://www.w3.org/2000/svg">
<path d="M15 26.5001C11.5 26.1668 8.50001 24.8334 6.66668 22.6668C5.33334 22.6668 4.00001 21.8334 3.50001 20.5001C3.00001 19.1668 3.50001 17.8334 4.66668 17.0001C4.83334 12.0001 9.33334 6.83344 16.1667 4.5001C23 2.16677 30 3.5001 33.3333 7.33344C34.6667 7.33344 36 8.16677 36.5 9.5001C37 10.8334 36.5 12.1668 35.3333 13.0001C35.3333 14.3334 35 15.6668 34.3333 17.0001C32.3333 15.8334 30 15.0001 27.5 15.0001C21 15.0001 15.5 20.0001 15 26.5001ZM36.6667 27.5001C36.6667 32.5001 32.5 36.6668 27.5 36.6668C22.5 36.6668 18.3333 32.5001 18.3333 27.5001C18.3333 22.5001 22.5 18.3334 27.5 18.3334C32.5 18.3334 36.6667 22.5001 36.6667 27.5001ZM22.1667 30.0001L26 27.5001L22.1667 25.0001C21.8333 25.8334 21.6667 26.6668 21.6667 27.5001C21.6667 28.7501 21.8333 29.1668 22.1667 30.0001ZM26.6667 29.0001L23.1667 31.3334C24 32.3334 25.3333 33.0001 26.6667 33.3334V29.0001ZM26.6667 21.8334C25.3333 22.0001 24 22.6668 23.1667 23.8334L26.6667 26.1668V21.8334ZM28.3333 26.0001L31.8333 23.6668C31 22.6668 29.6667 22.0001 28.3333 21.6668V26.0001ZM31.8333 31.3334L28.3333 29.0001V33.1668C29.6667 33.0001 31 32.3334 31.8333 31.3334ZM33.3333 27.5001C33.3333 26.6668 33.1667 25.8334 32.8333 25.0001L29 27.5001L32.8333 30.0001C33.1667 29.1668 33.3333 28.3334 33.3333 27.5001Z" fill="#04000B"/>
</svg>
