<svg width="185" height="185" viewBox="0 0 185 185" fill="none" xmlns="http://www.w3.org/2000/svg">
<rect width="185" height="185" fill="#3D3D3D" fill-opacity="0.81"/>
<g id="Pembayaran Selesai">
<rect x="-330" y="-73" width="843" height="418" rx="50" fill="white"/>
<circle id="Ellipse 101" cx="92.5" cy="92.5" r="90" fill="#D8FFCF" stroke="#1F4E3D" stroke-width="5"/>
<g id="mingcute:check-fill">
<g id="Group">
<path id="Vector" fill-rule="evenodd" clip-rule="evenodd" d="M95.3228 137.094L95.2797 137.102L95.0016 137.239L94.9233 137.254L94.8684 137.239L94.5904 137.102C94.5486 137.089 94.5172 137.095 94.4964 137.121L94.4807 137.16L94.4141 138.837L94.4337 138.915L94.4729 138.966L94.8802 139.256L94.9389 139.271L94.9859 139.256L95.3933 138.966L95.4403 138.903L95.4559 138.837L95.3893 137.164C95.3789 137.123 95.3567 137.099 95.3228 137.094ZM96.3607 136.651L96.3098 136.659L95.5852 137.023L95.546 137.062L95.5343 137.106L95.6048 138.79L95.6244 138.837L95.6557 138.864L96.4429 139.228C96.4925 139.241 96.5304 139.231 96.5565 139.197L96.5722 139.142L96.439 136.737C96.426 136.69 96.3999 136.662 96.3607 136.651ZM93.5603 136.659C93.543 136.649 93.5224 136.645 93.5027 136.65C93.483 136.654 93.4657 136.666 93.4545 136.683L93.431 136.737L93.2979 139.142C93.3005 139.189 93.3227 139.221 93.3644 139.236L93.4232 139.228L94.2104 138.864L94.2496 138.833L94.2653 138.79L94.3319 137.106L94.3201 137.059L94.2809 137.019L93.5603 136.659Z" fill="#1F4E3D"/>
<path id="Vector_2" fill-rule="evenodd" clip-rule="evenodd" d="M130.389 66.0181C131.49 67.1198 132.109 68.6139 132.109 70.1717C132.109 71.7296 131.49 73.2236 130.389 74.3253L86.3538 118.36C85.7719 118.943 85.081 119.404 84.3206 119.719C83.5602 120.034 82.7452 120.196 81.9221 120.196C81.0991 120.196 80.2841 120.034 79.5237 119.719C78.7633 119.404 78.0724 118.943 77.4904 118.36L55.6119 96.4858C55.0508 95.9439 54.6032 95.2956 54.2953 94.5788C53.9874 93.8621 53.8254 93.0912 53.8186 92.3111C53.8118 91.531 53.9605 90.7574 54.2559 90.0354C54.5513 89.3134 54.9875 88.6574 55.5391 88.1058C56.0907 87.5542 56.7467 87.1179 57.4687 86.8225C58.1907 86.5271 58.9643 86.3785 59.7444 86.3853C60.5245 86.392 61.2954 86.5541 62.0122 86.862C62.729 87.1699 63.3772 87.6175 63.9192 88.1786L81.9202 106.18L122.078 66.0181C122.623 65.4722 123.271 65.0391 123.984 64.7436C124.697 64.4481 125.462 64.296 126.233 64.296C127.005 64.296 127.769 64.4481 128.482 64.7436C129.196 65.0391 129.843 65.4722 130.389 66.0181Z" fill="#1F4E3D"/>
</g>
</g>
</g>
</svg>
