<svg width="40" height="40" viewBox="0 0 40 40" fill="none" xmlns="http://www.w3.org/2000/svg">
<path d="M15.0002 26.5001C11.5002 26.1668 8.50019 24.8334 6.66686 22.6668C5.33353 22.6668 4.00019 21.8334 3.50019 20.5001C3.00019 19.1668 3.50019 17.8334 4.66686 17.0001C4.83353 12.0001 9.33353 6.83344 16.1669 4.5001C23.0002 2.16677 30.0002 3.5001 33.3335 7.33344C34.6669 7.33344 36.0002 8.16677 36.5002 9.5001C37.0002 10.8334 36.5002 12.1668 35.3335 13.0001C35.3335 14.3334 35.0002 15.6668 34.3335 17.0001C32.3335 15.8334 30.0002 15.0001 27.5002 15.0001C21.0002 15.0001 15.5002 20.0001 15.0002 26.5001ZM36.6669 27.5001C36.6669 32.5001 32.5002 36.6668 27.5002 36.6668C22.5002 36.6668 18.3335 32.5001 18.3335 27.5001C18.3335 22.5001 22.5002 18.3334 27.5002 18.3334C32.5002 18.3334 36.6669 22.5001 36.6669 27.5001ZM22.1669 30.0001L26.0002 27.5001L22.1669 25.0001C21.8335 25.8334 21.6669 26.6668 21.6669 27.5001C21.6669 28.7501 21.8335 29.1668 22.1669 30.0001ZM26.6669 29.0001L23.1669 31.3334C24.0002 32.3334 25.3335 33.0001 26.6669 33.3334V29.0001ZM26.6669 21.8334C25.3335 22.0001 24.0002 22.6668 23.1669 23.8334L26.6669 26.1668V21.8334ZM28.3335 26.0001L31.8335 23.6668C31.0002 22.6668 29.6669 22.0001 28.3335 21.6668V26.0001ZM31.8335 31.3334L28.3335 29.0001V33.1668C29.6669 33.0001 31.0002 32.3334 31.8335 31.3334ZM33.3335 27.5001C33.3335 26.6668 33.1669 25.8334 32.8335 25.0001L29.0002 27.5001L32.8335 30.0001C33.1669 29.1668 33.3335 28.3334 33.3335 27.5001Z" fill="white"/>
</svg>
