<svg width="185" height="185" viewBox="0 0 185 185" fill="none" xmlns="http://www.w3.org/2000/svg">
<rect width="185" height="185" fill="#3D3D3D" fill-opacity="0.81"/>
<g id="Pembayaran Gagal ">
<rect x="-330" y="-73" width="843" height="418" rx="50" fill="white"/>
<circle id="Ellipse 101" cx="92.5" cy="92.5" r="90" fill="#FFDACF" stroke="#79150E" stroke-width="5"/>
<g id="mingcute:close-fill">
<g id="Group">
<path id="Vector" fill-rule="evenodd" clip-rule="evenodd" d="M94.3228 137.094L94.2797 137.102L94.0016 137.239L93.9233 137.254L93.8684 137.239L93.5904 137.102C93.5486 137.089 93.5172 137.095 93.4964 137.121L93.4807 137.16L93.4141 138.837L93.4337 138.915L93.4729 138.966L93.8802 139.256L93.9389 139.271L93.9859 139.256L94.3933 138.966L94.4403 138.903L94.4559 138.837L94.3893 137.164C94.3789 137.123 94.3567 137.099 94.3228 137.094ZM95.3607 136.651L95.3098 136.659L94.5852 137.023L94.546 137.062L94.5343 137.106L94.6048 138.79L94.6244 138.837L94.6557 138.864L95.4429 139.228C95.4925 139.241 95.5304 139.231 95.5565 139.197L95.5722 139.142L95.439 136.737C95.426 136.69 95.3999 136.662 95.3607 136.651ZM92.5603 136.659C92.543 136.649 92.5224 136.645 92.5027 136.65C92.483 136.654 92.4657 136.666 92.4545 136.683L92.431 136.737L92.2979 139.142C92.3005 139.189 92.3227 139.221 92.3644 139.236L92.4232 139.228L93.2104 138.864L93.2496 138.833L93.2653 138.79L93.3319 137.106L93.3201 137.059L93.2809 137.019L92.5603 136.659Z" fill="#79150E"/>
<path id="Vector_2" fill-rule="evenodd" clip-rule="evenodd" d="M91.9998 101.311L112.77 122.081C113.872 123.183 115.367 123.802 116.925 123.802C118.484 123.802 119.979 123.183 121.081 122.081C122.183 120.979 122.802 119.484 122.802 117.926C122.802 116.367 122.183 114.872 121.081 113.77L100.303 92.9999L121.077 72.2299C121.623 71.6841 122.055 71.0363 122.35 70.3234C122.645 69.6105 122.797 68.8464 122.797 68.0749C122.797 67.3033 122.645 66.5393 122.349 65.8265C122.054 65.1137 121.621 64.4661 121.075 63.9207C120.529 63.3752 119.882 62.9426 119.169 62.6475C118.456 62.3524 117.692 62.2006 116.92 62.2007C116.149 62.2009 115.385 62.3531 114.672 62.6485C113.959 62.944 113.311 63.3769 112.766 63.9226L91.9998 84.6927L71.2297 63.9226C70.688 63.3612 70.0399 62.9134 69.3233 62.6051C68.6067 62.2969 67.8358 62.1345 67.0558 62.1273C66.2757 62.1202 65.502 62.2685 64.7798 62.5635C64.0577 62.8586 63.4015 63.2945 62.8497 63.8459C62.2978 64.3972 61.8612 65.053 61.5655 65.7748C61.2698 66.4967 61.1207 67.2703 61.1272 68.0503C61.1336 68.8304 61.2953 69.6014 61.6028 70.3183C61.9104 71.0352 62.3576 71.6837 62.9185 72.2259L83.6964 92.9999L62.9224 113.774C62.3616 114.316 61.9143 114.965 61.6067 115.682C61.2992 116.398 61.1375 117.169 61.1311 117.95C61.1247 118.73 61.2737 119.503 61.5694 120.225C61.8652 120.947 62.3017 121.603 62.8536 122.154C63.4055 122.705 64.0616 123.141 64.7838 123.436C65.5059 123.731 66.2796 123.88 67.0597 123.873C67.8397 123.865 68.6106 123.703 69.3272 123.395C70.0438 123.087 70.6919 122.639 71.2336 122.077L91.9998 101.311Z" fill="#79150E"/>
</g>
</g>
</g>
</svg>
