<svg width="170" height="32" viewBox="0 0 170 32" fill="none" xmlns="http://www.w3.org/2000/svg">
<mask id="path-1-inside-1_10124_1387" fill="white">
<path d="M0 11C0 9.89543 0.895431 9 2 9H43C44.1046 9 45 9.89543 45 11C45 12.1046 44.1046 13 43 13H2C0.89543 13 0 12.1046 0 11Z"/>
</mask>
<path d="M0 11C0 7.68629 2.68629 5 6 5H39C42.3137 5 45 7.68629 45 11C45 11.5304 44.7893 12.0391 44.4142 12.4142C44.0391 12.7893 43.5304 13 43 13H2H0H2C1.46957 13 0.960859 12.7893 0.585786 12.4142C0.210714 12.0391 -2.3186e-08 11.5304 0 11L0 11ZM0 11M45 13H0H45M45 13M0 13V9V13M0 13M45 9V13V9" fill="#4BAF47" mask="url(#path-1-inside-1_10124_1387)"/>
<rect x="51" y="9" width="4" height="4" rx="2" fill="#4BAF47"/>
</svg>
