<svg width="240" height="78" viewBox="0 0 240 78" fill="none" xmlns="http://www.w3.org/2000/svg">
<path d="M57.7144 46.5648C57.7144 46.5648 54.9858 44.6557 54.2583 42.9401C53.5254 41.2117 53.7803 40.035 54.2104 38.2341C54.8373 35.6086 56.2109 34.3637 58.1312 32.2429C59.1125 31.159 60.2164 31.1821 60.8064 30.8725C61.3964 30.5628 58.9962 38.81 58.9962 38.81C58.9962 38.81 58.6895 45.7609 59.0847 46.6301L59.2721 46.639C59.328 46.5544 59.3914 46.4005 59.463 46.1661C60.388 43.1403 60.1167 43.4135 60.1167 43.4135C60.1167 43.4135 62.6818 33.2942 64.2539 32.0481C65.826 30.8021 68.501 27.85 68.6228 29.851C68.7446 31.852 68.2187 34.8411 68.2187 34.8411L61.473 46.3165C61.473 46.3165 64.9586 45.3771 66.8396 44.2488C69.1728 42.8494 69.2519 35.937 70.8906 37.928C71.9 39.1544 70.6321 44.7633 70.6321 44.7633C70.6321 44.7633 70.3232 45.8754 68.7131 46.644C66.9387 47.4911 63.511 46.8409 63.511 46.8409L59.2721 46.639C59.1969 46.7528 59.1351 46.7408 59.0847 46.6301L57.7144 46.5648Z" fill="url(#paint0_linear_10124_1372)"/>
<path d="M68.2784 58.1589C66.2276 63.502 59.2473 66.3492 52.6874 64.5184C46.1275 62.6876 42.4721 56.8721 44.5228 51.529C46.5736 46.1859 53.6336 41.9687 60.1167 45.6343C67.9733 46.6668 70.3291 52.8158 68.2784 58.1589Z" fill="url(#paint1_linear_10124_1372)"/>
<g filter="url(#filter0_d_10124_1372)">
<path d="M31.5008 59.8307C30.7564 62.7204 30.6392 61.873 29.346 67.1805C28.0528 72.4881 35.854 57.8051 36.4137 55.2003L45.2914 36.6053C46.5555 34.5963 50.6525 29.1525 56.9272 23.4491C63.202 16.8049 71.0913 18.5002 72.4416 20.4357C72.4416 20.4357 74.7934 23.4698 75.6307 25.654C76.5078 27.942 76.665 31.3869 76.665 31.7544C76.665 32.1219 77.1822 39.0307 76.665 40.9417C76.1479 42.8526 73.0967 48.0269 68.8216 55.2003C63.4778 64.1671 56.792 66.8286 50.1181 63.2851C45.55 60.8596 45.55 58.3607 44.8604 56.1558C44.1709 53.9508 45.562 49.4434 43.2228 52.7014C40.8836 55.9593 41.195 56.9754 40.8094 57.9197C40.4239 58.8641 43.044 67.4545 47.1876 69.0915C50.247 70.3 52.2012 71.2764 55.5482 70.9289C59.0337 70.567 60.8436 69.3676 63.5639 67.4745C67.8324 64.5039 69.0212 61.7368 71.8383 57.6992C76.1755 51.4828 79.1646 44.7635 79.5093 43.8816C79.8541 42.9996 81.2331 37.5607 81.1469 35.2823C81.0608 33.0038 79.8142 28.447 79.0784 24.6251C78.3426 20.8033 73.7345 17.4957 73.7345 17.4957C73.7345 17.4957 70.7178 14.5558 62.0125 15.2908C53.3072 16.0258 47.1876 26.683 47.1876 26.683L39.0856 41.3091C39.0856 41.3091 40.8094 25.2866 40.8094 24.6251C40.8094 23.9636 40.7012 10.9432 38.3099 7.353C35.9186 3.76285 30.9836 1.84069 25.1226 1.10571C19.2616 0.370726 4.26433 3.67814 4.00576 4.56012C3.74719 5.4421 12.2801 7.05906 12.2801 7.05906C12.2801 7.05906 14.8659 7.5001 17.193 8.97001C19.5202 10.4399 25.9845 16.3934 29.7769 24.6251C33.5694 32.8569 33.4932 31.7396 34.3451 36.6053C35.1055 40.9487 34.3347 43.4737 33.9142 47.8505C33.4596 52.5818 32.6952 55.1942 31.5008 59.8307Z" fill="url(#paint2_linear_10124_1372)"/>
</g>
<path d="M56.3244 48.1445C56.3244 49.6058 55.0509 48.1445 53.4801 48.1445C51.9092 48.1445 48.3086 52.2517 48.3086 50.7904C48.3086 49.3291 51.9092 45.4985 53.4801 45.4985C55.0509 45.4985 56.3244 46.6832 56.3244 48.1445Z" fill="#FFEBEB"/>
<path d="M103.242 51.319V47.224L102.189 47.094C102.154 46.964 102.154 46.8037 102.189 46.613C102.666 46.6477 103.259 46.665 103.97 46.665C104.611 46.665 105.209 46.652 105.764 46.626C105.816 46.782 105.816 46.938 105.764 47.094L104.685 47.25C104.65 47.5793 104.633 48.0863 104.633 48.771V56.428L105.686 56.558C105.721 56.688 105.721 56.8483 105.686 57.039C105.14 57.013 104.546 57 103.905 57C103.437 57 102.839 57.0087 102.111 57.026C102.059 56.87 102.059 56.714 102.111 56.558L103.19 56.402C103.225 56.0727 103.242 55.5657 103.242 54.881V51.969H98.12V56.428L99.173 56.558C99.2077 56.688 99.2077 56.8483 99.173 57.039C98.627 57.013 98.0333 57 97.392 57C96.924 57 96.326 57.0087 95.598 57.026C95.546 56.87 95.546 56.714 95.598 56.558L96.677 56.402C96.7117 56.0727 96.729 55.5657 96.729 54.881V47.224L95.676 47.094C95.6413 46.964 95.6413 46.8037 95.676 46.613C96.1527 46.6477 96.7463 46.665 97.457 46.665C98.0897 46.665 98.6877 46.652 99.251 46.626C99.303 46.782 99.303 46.938 99.251 47.094L98.172 47.25C98.1373 47.5793 98.12 48.0863 98.12 48.771V51.319H103.242ZM112.114 53.334H108.032C107.954 55.544 108.617 56.649 110.021 56.649C110.619 56.649 111.23 56.3847 111.854 55.856C111.984 55.934 112.084 56.0683 112.153 56.259C111.555 56.9263 110.797 57.26 109.878 57.26C107.763 57.26 106.706 56.0163 106.706 53.529C106.706 52.3503 107.018 51.436 107.642 50.786C108.266 50.1273 108.994 49.798 109.826 49.798C110.736 49.798 111.39 50.1143 111.789 50.747C112.188 51.3797 112.387 52.203 112.387 53.217C112.3 53.2863 112.209 53.3253 112.114 53.334ZM109.8 50.318C109.349 50.318 108.964 50.552 108.643 51.02C108.331 51.488 108.14 52.086 108.071 52.814H109.683C110.324 52.814 110.784 52.775 111.061 52.697C111.061 51.9863 110.953 51.4143 110.736 50.981C110.519 50.539 110.207 50.318 109.8 50.318ZM114.706 55.271C114.706 55.7217 114.789 56.0423 114.953 56.233C115.118 56.415 115.378 56.506 115.733 56.506C115.993 56.506 116.279 56.428 116.591 56.272C116.912 56.1073 117.207 55.8733 117.475 55.57V53.542C116.583 53.594 115.898 53.7543 115.421 54.023C114.945 54.283 114.706 54.699 114.706 55.271ZM117.475 53.074V52.411C117.475 51.6743 117.389 51.1413 117.215 50.812C117.051 50.474 116.773 50.305 116.383 50.305C115.985 50.305 115.664 50.435 115.421 50.695C115.179 50.9463 115.014 51.3797 114.927 51.995C114.65 52.0557 114.446 52.086 114.316 52.086C113.978 52.086 113.779 51.9647 113.718 51.722C113.718 51.1327 113.974 50.6647 114.485 50.318C114.997 49.9713 115.634 49.798 116.396 49.798C117.237 49.798 117.831 49.9713 118.177 50.318C118.533 50.656 118.71 51.267 118.71 52.151V55.817C118.71 56.0337 118.723 56.22 118.749 56.376L119.776 56.506C119.811 56.636 119.811 56.8007 119.776 57C119.161 57.026 118.507 57.0867 117.813 57.182C117.744 57.1127 117.701 57.026 117.683 56.922L117.618 56.025C116.899 56.8483 116.097 57.26 115.213 57.26C114.667 57.26 114.238 57.104 113.926 56.792C113.623 56.48 113.471 56.0597 113.471 55.531C113.471 54.7337 113.831 54.1313 114.55 53.724C115.278 53.3167 116.253 53.1 117.475 53.074ZM122.457 48.758V56.337L123.51 56.532C123.544 56.6707 123.544 56.844 123.51 57.052C122.964 57.026 122.405 57.013 121.833 57.013C121.434 57.013 120.871 57.0217 120.143 57.039C120.091 56.8743 120.091 56.7053 120.143 56.532L121.17 56.389C121.204 55.9123 121.222 55.362 121.222 54.738V47.289L120.156 47.159C120.121 47.029 120.121 46.8643 120.156 46.665C120.754 46.6217 121.499 46.5307 122.392 46.392C122.47 46.4787 122.513 46.5653 122.522 46.652C122.478 46.8773 122.457 47.5793 122.457 48.758ZM126.25 48.498V50.357H128.083C128.101 50.461 128.109 50.539 128.109 50.591C128.109 50.669 128.101 50.76 128.083 50.864L126.25 51.137V54.712C126.25 55.3533 126.307 55.8083 126.419 56.077C126.541 56.337 126.727 56.467 126.978 56.467C127.204 56.467 127.555 56.376 128.031 56.194C128.118 56.272 128.179 56.4193 128.213 56.636C127.953 56.792 127.754 56.909 127.615 56.987C127.485 57.0563 127.316 57.117 127.108 57.169C126.909 57.2297 126.697 57.26 126.471 57.26C126.038 57.26 125.683 57.0953 125.405 56.766C125.137 56.428 125.002 55.9167 125.002 55.232V50.981L124.092 50.864C124.075 50.7773 124.066 50.7037 124.066 50.643C124.066 50.5737 124.075 50.4783 124.092 50.357C124.335 50.3137 124.543 50.24 124.716 50.136C124.898 50.0233 125.05 49.8717 125.171 49.681C125.293 49.4817 125.384 49.3083 125.444 49.161C125.514 49.005 125.596 48.784 125.691 48.498C125.769 48.472 125.865 48.459 125.977 48.459C126.081 48.459 126.172 48.472 126.25 48.498ZM129.74 48.563C129.74 47.991 129.727 47.5663 129.701 47.289L128.674 47.159C128.639 47.029 128.639 46.8643 128.674 46.665C129.255 46.6217 129.996 46.5307 130.897 46.392C130.975 46.4787 131.018 46.5653 131.027 46.652C130.984 46.8773 130.962 47.5793 130.962 48.758V51.215C131.603 50.331 132.375 49.889 133.276 49.889C133.813 49.889 134.273 50.0233 134.654 50.292C135.035 50.5607 135.226 51.02 135.226 51.67V56.337L136.279 56.532C136.314 56.6707 136.314 56.844 136.279 57.052C135.733 57.026 135.178 57.013 134.615 57.013C134.216 57.013 133.653 57.0217 132.925 57.039C132.873 56.8743 132.873 56.7053 132.925 56.532L133.952 56.389C133.987 55.9123 134.004 55.362 134.004 54.738V52.32C134.004 51.7133 133.926 51.2757 133.77 51.007C133.623 50.7383 133.35 50.604 132.951 50.604C132.622 50.604 132.275 50.7253 131.911 50.968C131.556 51.2107 131.239 51.5617 130.962 52.021V56.337L132.015 56.532C132.05 56.6707 132.05 56.844 132.015 57.052C131.469 57.026 130.914 57.013 130.351 57.013C129.952 57.013 129.389 57.0217 128.661 57.039C128.609 56.8743 128.609 56.7053 128.661 56.532L129.688 56.389C129.723 55.9123 129.74 55.362 129.74 54.738V48.563ZM139.027 58.924L139.859 56.961L137.337 50.747L136.323 50.539C136.28 50.3657 136.28 50.1923 136.323 50.019C136.8 50.0537 137.38 50.071 138.065 50.071C138.68 50.071 139.265 50.058 139.82 50.032C139.872 50.2053 139.872 50.3743 139.82 50.539L138.702 50.721L139.937 53.646C140.11 54.0707 140.292 54.6643 140.483 55.427H140.509C140.656 54.907 140.86 54.335 141.12 53.711L142.251 50.682L141.237 50.539C141.202 50.4003 141.202 50.227 141.237 50.019C141.714 50.0537 142.177 50.071 142.628 50.071C143.009 50.071 143.482 50.058 144.045 50.032C144.097 50.2053 144.097 50.3743 144.045 50.539L143.018 50.682L139.586 59.08C139.404 59.5133 139.2 59.8383 138.975 60.055C138.75 60.2717 138.451 60.38 138.078 60.38C137.783 60.38 137.554 60.341 137.389 60.263C137.233 60.1937 137.073 60.055 136.908 59.847C136.96 59.3703 137.207 58.989 137.649 58.703C138.004 59.1017 138.308 59.301 138.559 59.301C138.776 59.301 138.932 59.1753 139.027 58.924ZM147.892 46.613C148.334 46.613 148.971 46.5957 149.803 46.561C150.635 46.5263 151.185 46.509 151.454 46.509H151.805C152.94 46.509 153.785 46.743 154.34 47.211C154.894 47.6703 155.172 48.277 155.172 49.031C155.172 50.1057 154.47 50.851 153.066 51.267V51.306C153.88 51.4273 154.522 51.748 154.99 52.268C155.466 52.7793 155.705 53.3947 155.705 54.114C155.705 55.076 155.375 55.8257 154.717 56.363C154.067 56.9003 153.109 57.169 151.844 57.169C151.497 57.169 150.934 57.1387 150.154 57.078C149.382 57.026 148.767 57 148.308 57C148.256 57 148.173 57 148.061 57C147.948 57.0087 147.866 57.013 147.814 57.013C147.762 56.857 147.762 56.701 147.814 56.545L148.893 56.402C148.927 56.0727 148.945 55.5657 148.945 54.881V47.224L147.892 47.094C147.857 46.964 147.857 46.8037 147.892 46.613ZM151.376 51.722H150.336V56.428C150.778 56.506 151.129 56.5537 151.389 56.571C152.437 56.571 153.161 56.376 153.56 55.986C153.958 55.5873 154.158 54.9677 154.158 54.127C154.158 53.451 153.911 52.8833 153.417 52.424C152.931 51.956 152.251 51.722 151.376 51.722ZM151.467 47.055C151.033 47.055 150.674 47.0853 150.388 47.146C150.353 47.4753 150.336 48.017 150.336 48.771V51.072H151.35C152.156 51.072 152.741 50.9073 153.105 50.578C153.477 50.2487 153.664 49.759 153.664 49.109C153.664 48.4503 153.46 47.9433 153.053 47.588C152.654 47.2327 152.125 47.055 151.467 47.055ZM163.052 50.058V55.154C163.052 55.7347 163.065 56.142 163.091 56.376L164.118 56.506C164.144 56.6447 164.144 56.8093 164.118 57C163.485 57.026 162.826 57.0867 162.142 57.182C162.081 57.1213 162.038 57.039 162.012 56.935L161.947 55.778C161.583 56.246 161.206 56.61 160.816 56.87C160.434 57.13 159.984 57.26 159.464 57.26C158.935 57.26 158.489 57.1257 158.125 56.857C157.769 56.5883 157.592 56.129 157.592 55.479V52.593C157.592 51.605 157.579 50.9723 157.553 50.695L156.526 50.565C156.491 50.435 156.491 50.2703 156.526 50.071C157.124 50.0277 157.869 49.9367 158.762 49.798C158.84 49.8847 158.883 49.9713 158.892 50.058C158.848 50.2833 158.827 51.8737 158.827 54.829C158.827 55.4357 158.896 55.869 159.035 56.129C159.182 56.3803 159.451 56.506 159.841 56.506C160.569 56.506 161.227 56.0727 161.817 55.206V52.58C161.817 51.6007 161.804 50.9723 161.778 50.695L160.751 50.565C160.716 50.435 160.716 50.2703 160.751 50.071C161.271 50.0363 161.994 49.9453 162.922 49.798C163 49.8847 163.043 49.9713 163.052 50.058ZM171.18 55.154C171.18 55.7347 171.193 56.142 171.219 56.376L172.246 56.506C172.272 56.6447 172.272 56.8093 172.246 57C171.613 57.026 170.954 57.0867 170.27 57.182C170.209 57.1213 170.166 57.039 170.14 56.935L170.075 56.103C169.771 56.4583 169.394 56.7443 168.944 56.961C168.493 57.169 168.021 57.273 167.527 57.273C166.773 57.273 166.149 56.961 165.655 56.337C165.161 55.7043 164.914 54.8637 164.914 53.815C164.914 52.6017 165.234 51.631 165.876 50.903C166.526 50.1663 167.301 49.798 168.203 49.798C168.913 49.798 169.494 49.967 169.945 50.305V48.563C169.945 47.991 169.932 47.5663 169.906 47.289L168.879 47.159C168.844 47.029 168.844 46.8643 168.879 46.665C169.477 46.6217 170.222 46.5307 171.115 46.392C171.193 46.4787 171.236 46.5653 171.245 46.652C171.201 46.8773 171.18 47.5793 171.18 48.758V55.154ZM168.099 50.5C167.535 50.5 167.085 50.799 166.747 51.397C166.409 51.9863 166.24 52.8053 166.24 53.854C166.24 54.712 166.396 55.3663 166.708 55.817C167.028 56.2677 167.449 56.493 167.969 56.493C168.281 56.493 168.623 56.3977 168.996 56.207C169.368 56.0077 169.685 55.7347 169.945 55.388V51.228C169.52 50.7427 168.905 50.5 168.099 50.5ZM179.305 55.154C179.305 55.7347 179.318 56.142 179.344 56.376L180.371 56.506C180.397 56.6447 180.397 56.8093 180.371 57C179.738 57.026 179.079 57.0867 178.395 57.182C178.334 57.1213 178.291 57.039 178.265 56.935L178.2 56.103C177.896 56.4583 177.519 56.7443 177.069 56.961C176.618 57.169 176.146 57.273 175.652 57.273C174.898 57.273 174.274 56.961 173.78 56.337C173.286 55.7043 173.039 54.8637 173.039 53.815C173.039 52.6017 173.359 51.631 174.001 50.903C174.651 50.1663 175.426 49.798 176.328 49.798C177.038 49.798 177.619 49.967 178.07 50.305V48.563C178.07 47.991 178.057 47.5663 178.031 47.289L177.004 47.159C176.969 47.029 176.969 46.8643 177.004 46.665C177.602 46.6217 178.347 46.5307 179.24 46.392C179.318 46.4787 179.361 46.5653 179.37 46.652C179.326 46.8773 179.305 47.5793 179.305 48.758V55.154ZM176.224 50.5C175.66 50.5 175.21 50.799 174.872 51.397C174.534 51.9863 174.365 52.8053 174.365 53.854C174.365 54.712 174.521 55.3663 174.833 55.817C175.153 56.2677 175.574 56.493 176.094 56.493C176.406 56.493 176.748 56.3977 177.121 56.207C177.493 56.0077 177.81 55.7347 178.07 55.388V51.228C177.645 50.7427 177.03 50.5 176.224 50.5ZM183.283 58.924L184.115 56.961L181.593 50.747L180.579 50.539C180.535 50.3657 180.535 50.1923 180.579 50.019C181.055 50.0537 181.636 50.071 182.321 50.071C182.936 50.071 183.521 50.058 184.076 50.032C184.128 50.2053 184.128 50.3743 184.076 50.539L182.958 50.721L184.193 53.646C184.366 54.0707 184.548 54.6643 184.739 55.427H184.765C184.912 54.907 185.116 54.335 185.376 53.711L186.507 50.682L185.493 50.539C185.458 50.4003 185.458 50.227 185.493 50.019C185.969 50.0537 186.433 50.071 186.884 50.071C187.265 50.071 187.737 50.058 188.301 50.032C188.353 50.2053 188.353 50.3743 188.301 50.539L187.274 50.682L183.842 59.08C183.66 59.5133 183.456 59.8383 183.231 60.055C183.005 60.2717 182.706 60.38 182.334 60.38C182.039 60.38 181.809 60.341 181.645 60.263C181.489 60.1937 181.328 60.055 181.164 59.847C181.216 59.3703 181.463 58.989 181.905 58.703C182.26 59.1017 182.563 59.301 182.815 59.301C183.031 59.301 183.187 59.1753 183.283 58.924Z" fill="white"/>
<path d="M113.27 27.5391C113.27 28.3594 113.16 29.1406 112.941 29.8828C112.723 30.6172 112.414 31.2969 112.016 31.9219C111.625 32.5469 111.156 33.1133 110.609 33.6211C110.062 34.1211 109.457 34.5469 108.793 34.8984C108.137 35.25 107.43 35.5234 106.672 35.7188C105.922 35.9062 105.148 36 104.352 36H96.9102V19.125H104.352C105.148 19.125 105.922 19.2188 106.672 19.4062C107.422 19.5938 108.125 19.8633 108.781 20.2148C109.445 20.5586 110.051 20.9805 110.598 21.4805C111.152 21.9805 111.625 22.543 112.016 23.168C112.414 23.7852 112.723 24.4648 112.941 25.207C113.16 25.9414 113.27 26.7188 113.27 27.5391ZM108.547 27.5391C108.547 26.625 108.434 25.7578 108.207 24.9375C107.988 24.1094 107.645 23.3828 107.176 22.7578C106.707 22.1328 106.109 21.6367 105.383 21.2695C104.664 20.9023 103.801 20.7188 102.793 20.7188H101.562V34.3594H102.793C103.785 34.3594 104.641 34.1758 105.359 33.8086C106.086 33.4336 106.684 32.9336 107.152 32.3086C107.629 31.6758 107.98 30.9492 108.207 30.1289C108.434 29.3086 108.547 28.4453 108.547 27.5391ZM128.246 36H116.129V19.125H128.246V21.2812H120.781V26.4961H126.547V28.6406H120.781V33.8438H128.246V36ZM138.582 36H134.328L129.898 19.125H134.645L137.445 31.1016L139.93 19.125H144.195L146.914 31.4062L149.973 19.125H152.844L147.934 36H143.668L141.289 25.2188L138.582 36ZM168.945 19.125L163.484 28.9102V36H158.832V29.168L153.312 19.125H158.059L161.727 27.6094L165.664 19.125H168.945ZM193.145 31.418C193.145 31.8945 193.066 32.3398 192.91 32.7539C192.754 33.168 192.539 33.5469 192.266 33.8906C191.992 34.2266 191.672 34.5273 191.305 34.793C190.945 35.0586 190.555 35.2812 190.133 35.4609C189.719 35.6406 189.289 35.7773 188.844 35.8711C188.398 35.957 187.961 36 187.531 36H177.605V19.125H186.676C187.074 19.125 187.492 19.1562 187.93 19.2188C188.367 19.2734 188.793 19.3633 189.207 19.4883C189.629 19.6133 190.027 19.7773 190.402 19.9805C190.785 20.1836 191.117 20.4336 191.398 20.7305C191.688 21.0195 191.914 21.3555 192.078 21.7383C192.25 22.1211 192.336 22.5586 192.336 23.0508C192.336 23.5195 192.242 23.9453 192.055 24.3281C191.867 24.7109 191.613 25.0547 191.293 25.3594C190.98 25.6562 190.617 25.9219 190.203 26.1562C189.797 26.3828 189.367 26.582 188.914 26.7539C189.484 26.9102 190.023 27.1172 190.531 27.375C191.047 27.6328 191.496 27.9492 191.879 28.3242C192.27 28.6992 192.578 29.1445 192.805 29.6602C193.031 30.168 193.145 30.7539 193.145 31.418ZM187.613 23.4609C187.613 22.5078 187.359 21.8125 186.852 21.375C186.352 20.9375 185.637 20.7188 184.707 20.7188H182.258V26.1914H184.309C184.73 26.1914 185.141 26.1406 185.539 26.0391C185.938 25.9297 186.289 25.7656 186.594 25.5469C186.906 25.3203 187.152 25.0352 187.332 24.6914C187.52 24.3477 187.613 23.9375 187.613 23.4609ZM188.434 31.125C188.434 30.6641 188.375 30.2344 188.258 29.8359C188.141 29.4297 187.961 29.082 187.719 28.793C187.477 28.4961 187.172 28.2656 186.805 28.1016C186.445 27.9297 186.02 27.8438 185.527 27.8438H182.258V34.3594H185.117C185.594 34.3594 186.035 34.2812 186.441 34.125C186.848 33.9688 187.199 33.75 187.496 33.4688C187.793 33.1875 188.023 32.8477 188.188 32.4492C188.352 32.0508 188.434 31.6094 188.434 31.125ZM212 27.9258V28.1484C211.984 28.8047 211.914 29.4844 211.789 30.1875C211.672 30.8906 211.504 31.5938 211.285 32.2969C211.066 33 210.805 33.6953 210.5 34.3828C210.195 35.0703 209.852 35.7266 209.469 36.3516C209.094 36.9844 208.688 37.5742 208.25 38.1211C207.812 38.6758 207.352 39.1641 206.867 39.5859L205.121 38.5781C205.395 38.1172 205.641 37.6133 205.859 37.0664C206.086 36.5273 206.289 35.9609 206.469 35.3672C206.648 34.7734 206.801 34.1641 206.926 33.5391C207.059 32.9141 207.168 32.293 207.254 31.6758C207.34 31.0586 207.402 30.4531 207.441 29.8594C207.488 29.2578 207.512 28.6875 207.512 28.1484C207.512 27.7266 207.508 27.25 207.5 26.7188C207.5 26.1797 207.469 25.6328 207.406 25.0781C207.352 24.5234 207.258 23.9844 207.125 23.4609C206.992 22.9297 206.793 22.457 206.527 22.043C206.27 21.6289 205.934 21.2969 205.52 21.0469C205.113 20.7969 204.605 20.6719 203.996 20.6719C203.457 20.6719 202.992 20.7656 202.602 20.9531C202.219 21.1328 201.891 21.3789 201.617 21.6914C201.352 21.9961 201.137 22.3516 200.973 22.7578C200.816 23.1641 200.691 23.5938 200.598 24.0469C200.512 24.4922 200.453 24.9453 200.422 25.4062C200.398 25.8594 200.387 26.2891 200.387 26.6953V29.9648H205.438V31.8984H200.387V36H195.734V27.4219C195.734 26.1953 195.93 25.0547 196.32 24C196.711 22.9453 197.262 22.0312 197.973 21.2578C198.691 20.4766 199.551 19.8672 200.551 19.4297C201.559 18.9844 202.68 18.7617 203.914 18.7617C204.75 18.7617 205.531 18.8828 206.258 19.125C206.992 19.3594 207.66 19.6875 208.262 20.1094C208.863 20.5234 209.398 21.0195 209.867 21.5977C210.344 22.168 210.738 22.793 211.051 23.4727C211.371 24.1523 211.613 24.8711 211.777 25.6289C211.941 26.3867 212.016 27.1523 212 27.9258ZM219.688 36H215.035V19.125H223.332C224.113 19.125 224.867 19.2188 225.594 19.4062C226.32 19.5859 226.961 19.875 227.516 20.2734C228.078 20.6641 228.523 21.1719 228.852 21.7969C229.188 22.4219 229.355 23.1797 229.355 24.0703C229.355 24.7656 229.207 25.4219 228.91 26.0391C228.621 26.6484 228.23 27.1953 227.738 27.6797C227.254 28.1562 226.695 28.5547 226.062 28.875C225.43 29.1875 224.773 29.3945 224.094 29.4961C224.398 30.0117 224.715 30.5 225.043 30.9609C225.379 31.4219 225.715 31.8555 226.051 32.2617C226.395 32.6602 226.734 33.0312 227.07 33.375C227.406 33.7109 227.727 34.0195 228.031 34.3008C228.75 34.957 229.461 35.5234 230.164 36H224.363C223.895 35.5547 223.449 35.0195 223.027 34.3945C222.668 33.8633 222.305 33.207 221.938 32.4258C221.578 31.6367 221.301 30.7266 221.105 29.6953H219.688V36ZM224.633 24.0703C224.633 22.9375 224.355 22.1055 223.801 21.5742C223.254 21.043 222.43 20.7773 221.328 20.7773H219.688V28.1016H221.328C221.914 28.1016 222.414 27.9922 222.828 27.7734C223.25 27.5469 223.594 27.25 223.859 26.8828C224.125 26.5078 224.32 26.0781 224.445 25.5938C224.57 25.1094 224.633 24.6016 224.633 24.0703Z" fill="#FFFBFB"/>
<defs>
<filter id="filter0_d_10124_1372" x="0" y="0" width="85.1504" height="78" filterUnits="userSpaceOnUse" color-interpolation-filters="sRGB">
<feFlood flood-opacity="0" result="BackgroundImageFix"/>
<feColorMatrix in="SourceAlpha" type="matrix" values="0 0 0 0 0 0 0 0 0 0 0 0 0 0 0 0 0 0 127 0" result="hardAlpha"/>
<feOffset dy="3"/>
<feGaussianBlur stdDeviation="2"/>
<feComposite in2="hardAlpha" operator="out"/>
<feColorMatrix type="matrix" values="0 0 0 0 0 0 0 0 0 0 0 0 0 0 0 0 0 0 0.25 0"/>
<feBlend mode="normal" in2="BackgroundImageFix" result="effect1_dropShadow_10124_1372"/>
<feBlend mode="normal" in="SourceGraphic" in2="effect1_dropShadow_10124_1372" result="shape"/>
</filter>
<linearGradient id="paint0_linear_10124_1372" x1="58.7378" y1="32.4895" x2="53.7169" y2="46.942" gradientUnits="userSpaceOnUse">
<stop stop-color="#4BAF47"/>
<stop offset="1" stop-color="#1F491E"/>
</linearGradient>
<linearGradient id="paint1_linear_10124_1372" x1="43.27" y1="70.8608" x2="65.0514" y2="49.3194" gradientUnits="userSpaceOnUse">
<stop stop-color="#885C27"/>
<stop offset="0.682692" stop-color="#BB7F35"/>
<stop offset="1" stop-color="#EE9C44"/>
</linearGradient>
<linearGradient id="paint2_linear_10124_1372" x1="42.5754" y1="1" x2="19.4779" y2="53.6498" gradientUnits="userSpaceOnUse">
<stop stop-color="#49A760"/>
<stop offset="1" stop-color="#1C4125"/>
</linearGradient>
</defs>
</svg>
