<svg width="15" height="18" viewBox="0 0 15 18" fill="none" xmlns="http://www.w3.org/2000/svg">
<g clip-path="url(#clip0_10124_1417)">
<path d="M14.1543 12.4629C14.1543 12.6387 14.1191 12.873 14.0488 13.166C13.9785 13.459 13.9082 13.6875 13.8379 13.8516C13.6973 14.1914 13.2871 14.5488 12.6074 14.9238C11.9746 15.2637 11.3535 15.4336 10.7441 15.4336C10.5566 15.4336 10.3809 15.4219 10.2168 15.3984C10.041 15.375 9.84766 15.334 9.63672 15.2754C9.42578 15.2051 9.26758 15.1523 9.16211 15.1172C9.05664 15.082 8.86914 15.0176 8.59961 14.9238C8.33008 14.8184 8.16602 14.7539 8.10742 14.7305C7.45117 14.4961 6.86523 14.2207 6.34961 13.9043C5.50586 13.377 4.62109 12.6504 3.69531 11.7246C2.78125 10.8105 2.06055 9.93164 1.5332 9.08789C1.20508 8.57227 0.923828 7.98633 0.689453 7.33008C0.677734 7.25977 0.619141 7.0957 0.513672 6.83789C0.419922 6.56836 0.349609 6.38086 0.302734 6.27539C0.267578 6.16992 0.220703 6.01172 0.162109 5.80078C0.103516 5.58984 0.0625 5.39648 0.0390625 5.2207C0.015625 5.04492 0.00390625 4.86914 0.00390625 4.69336C0.00390625 4.07227 0.173828 3.45117 0.513672 2.83008C0.888672 2.15039 1.24609 1.74023 1.58594 1.59961C1.75 1.5293 1.97852 1.45898 2.27148 1.38867C2.56445 1.31836 2.79883 1.2832 2.97461 1.2832C3.06836 1.2832 3.13867 1.29492 3.18555 1.31836C3.30273 1.35352 3.47852 1.60547 3.71289 2.07422C3.79492 2.20312 3.90039 2.38477 4.0293 2.61914C4.14648 2.85352 4.26367 3.06445 4.38086 3.25195C4.48633 3.45117 4.58594 3.63281 4.67969 3.79688C4.70312 3.82031 4.76172 3.90234 4.85547 4.04297C4.96094 4.18359 5.03711 4.30664 5.08398 4.41211C5.13086 4.50586 5.1543 4.59961 5.1543 4.69336C5.1543 4.82227 5.05469 4.98633 4.85547 5.18555C4.66797 5.39648 4.46289 5.58398 4.24023 5.74805C4.01758 5.91211 3.80664 6.08789 3.60742 6.27539C3.41992 6.46289 3.32617 6.61523 3.32617 6.73242C3.32617 6.80273 3.34375 6.87891 3.37891 6.96094C3.41406 7.05469 3.44336 7.125 3.4668 7.17188C3.49023 7.21875 3.53711 7.30078 3.60742 7.41797C3.67773 7.52344 3.71289 7.58789 3.71289 7.61133C4.22852 8.52539 4.81445 9.31055 5.4707 9.9668C6.12695 10.623 6.91211 11.2031 7.82617 11.707C7.83789 11.7188 7.90234 11.7598 8.01953 11.8301C8.13672 11.9004 8.21875 11.9473 8.26562 11.9707C8.3125 11.9941 8.37695 12.0234 8.45898 12.0586C8.55273 12.0938 8.62891 12.1113 8.6875 12.1113C8.81641 12.1113 8.97461 12.0117 9.16211 11.8125C9.34961 11.625 9.52539 11.4199 9.68945 11.1973C9.85352 10.9746 10.0352 10.7637 10.2344 10.5645C10.4336 10.377 10.6035 10.2832 10.7441 10.2832C10.8379 10.2832 10.9316 10.3066 11.0254 10.3535C11.1191 10.4004 11.2363 10.4707 11.377 10.5645C11.5176 10.6699 11.6055 10.7285 11.6406 10.7402C11.8047 10.8457 11.9805 10.9512 12.168 11.0566C12.3672 11.1621 12.584 11.2793 12.8184 11.4082C13.0527 11.5371 13.2285 11.6367 13.3457 11.707C13.8145 11.9414 14.0723 12.123 14.1191 12.252C14.1426 12.2988 14.1543 12.3691 14.1543 12.4629Z" fill="#EEC044"/>
</g>
<defs>
<clipPath id="clip0_10124_1417">
<rect width="14.16" height="18" fill="white" transform="matrix(1 0 0 -1 0 18)"/>
</clipPath>
</defs>
</svg>
